HIERARCHY
ROOT mixamorig:Hips
{
	OFFSET 0.000000 201.639420 0.000000
	CHANNELS 6 Xposition Yposition Zposition Xrotation Yrotation Zrotation
	JOINT mixamorig:Spine
	{
		OFFSET 0.006200 19.524994 -2.481800
		CHANNELS 3 Xrotation Yrotation Zrotation
		JOINT mixamorig:Spine1
		{
			OFFSET -0.000900 22.835007 -2.825400
			CHANNELS 3 Xrotation Yrotation Zrotation
			JOINT mixamorig:Spine2
			{
				OFFSET -0.020600 26.552490 -3.193300
				CHANNELS 3 Xrotation Yrotation Zrotation
				JOINT mixamorig:Neck
				{
					OFFSET -0.060000 30.701813 1.352200
					CHANNELS 3 Xrotation Yrotation Zrotation
					JOINT mixamorig:Head
					{
						OFFSET -0.087200 22.547607 3.670900
						CHANNELS 3 Xrotation Yrotation Zrotation
						JOINT mixamorig:HeadTop_End
						{
							OFFSET -0.830600 40.355194 7.893500
							CHANNELS 3 Xrotation Yrotation Zrotation
							End Site
							{
								OFFSET 0.000000 30.592346 0.000000
							}
						}
						JOINT mixamorig:RightEye
						{
							OFFSET -6.302100 18.118591 16.197100
							CHANNELS 3 Xrotation Yrotation Zrotation
							End Site
							{
								OFFSET 0.000000 30.592346 0.000000
							}
						}
						JOINT mixamorig:LeftEye
						{
							OFFSET 6.741500 18.382690 16.401899
							CHANNELS 3 Xrotation Yrotation Zrotation
							End Site
							{
								OFFSET 0.000000 30.592346 0.000000
							}
						}
					}
				}
				JOINT mixamorig:LeftShoulder
				{
					OFFSET 11.924900 18.230499 1.425400
					CHANNELS 3 Xrotation Yrotation Zrotation
					JOINT mixamorig:LeftArm
					{
						OFFSET 25.435989 -0.697632 -5.229300
						CHANNELS 3 Xrotation Yrotation Zrotation
						JOINT mixamorig:LeftForeArm
						{
							OFFSET 54.684776 0.000000 0.000000
							CHANNELS 3 Xrotation Yrotation Zrotation
							JOINT mixamorig:LeftHand
							{
								OFFSET 55.098175 0.000000 0.000000
								CHANNELS 3 Xrotation Yrotation Zrotation
								JOINT mixamorig:LeftHandMiddle1
								{
									OFFSET 23.369751 0.000000 0.000000
									CHANNELS 3 Xrotation Yrotation Zrotation
									JOINT mixamorig:LeftHandMiddle2
									{
										OFFSET 6.378677 0.000000 0.000000
										CHANNELS 3 Xrotation Yrotation Zrotation
										JOINT mixamorig:LeftHandMiddle3
										{
											OFFSET 6.148331 0.000000 0.000000
											CHANNELS 3 Xrotation Yrotation Zrotation
											JOINT mixamorig:LeftHandMiddle4
											{
												OFFSET 6.582504 0.000000 0.000000
												CHANNELS 3 Xrotation Yrotation Zrotation
												End Site
												{
													OFFSET -1.168900 6.395691 1.028606
												}
											}
										}
									}
								}
								JOINT mixamorig:LeftHandThumb1
								{
									OFFSET 7.235672 -3.848206 5.434273
									CHANNELS 3 Xrotation Yrotation Zrotation
									JOINT mixamorig:LeftHandThumb2
									{
										OFFSET 6.568451 -3.792297 3.792300
										CHANNELS 3 Xrotation Yrotation Zrotation
										JOINT mixamorig:LeftHandThumb3
										{
											OFFSET 6.063080 -3.500519 3.500518
											CHANNELS 3 Xrotation Yrotation Zrotation
											JOINT mixamorig:LeftHandThumb4
											{
												OFFSET 4.793182 -2.767334 2.767349
												CHANNELS 3 Xrotation Yrotation Zrotation
												End Site
												{
													OFFSET 0.101639 6.054260 1.275483
												}
											}
										}
									}
								}
								JOINT mixamorig:LeftHandIndex1
								{
									OFFSET 23.101074 -0.309540 4.992809
									CHANNELS 3 Xrotation Yrotation Zrotation
									JOINT mixamorig:LeftHandIndex2
									{
										OFFSET 6.226883 0.000000 0.000000
										CHANNELS 3 Xrotation Yrotation Zrotation
										JOINT mixamorig:LeftHandIndex3
										{
											OFFSET 6.094330 0.000000 0.000000
											CHANNELS 3 Xrotation Yrotation Zrotation
											JOINT mixamorig:LeftHandIndex4
											{
												OFFSET 5.482605 0.000000 0.000000
												CHANNELS 3 Xrotation Yrotation Zrotation
												End Site
												{
													OFFSET -1.427902 5.233032 0.797164
												}
											}
										}
									}
								}
								JOINT mixamorig:LeftHandRing1
								{
									OFFSET 22.299240 0.021149 -3.964172
									CHANNELS 3 Xrotation Yrotation Zrotation
									JOINT mixamorig:LeftHandRing2
									{
										OFFSET 6.321869 0.000000 0.000000
										CHANNELS 3 Xrotation Yrotation Zrotation
										JOINT mixamorig:LeftHandRing3
										{
											OFFSET 5.899796 0.000000 0.000000
											CHANNELS 3 Xrotation Yrotation Zrotation
											JOINT mixamorig:LeftHandRing4
											{
												OFFSET 6.517899 0.000000 0.000000
												CHANNELS 3 Xrotation Yrotation Zrotation
												End Site
												{
													OFFSET -1.637299 6.232208 0.980890
												}
											}
										}
									}
								}
								JOINT mixamorig:LeftHandPinky1
								{
									OFFSET 20.463791 -0.302338 -8.562233
									CHANNELS 3 Xrotation Yrotation Zrotation
									JOINT mixamorig:LeftHandPinky2
									{
										OFFSET 6.908646 0.000000 0.000000
										CHANNELS 3 Xrotation Yrotation Zrotation
										JOINT mixamorig:LeftHandPinky3
										{
											OFFSET 4.622849 0.000000 0.000000
											CHANNELS 3 Xrotation Yrotation Zrotation
											JOINT mixamorig:LeftHandPinky4
											{
												OFFSET 5.216080 0.000000 0.000000
												CHANNELS 3 Xrotation Yrotation Zrotation
												End Site
												{
													OFFSET -0.606308 5.116241 0.814926
												}
											}
										}
									}
								}
							}
						}
					}
				}
				JOINT mixamorig:RightShoulder
				{
					OFFSET -12.001300 18.284088 1.348900
					CHANNELS 3 Xrotation Yrotation Zrotation
					JOINT mixamorig:RightArm
					{
						OFFSET -25.308500 -0.751312 -5.164599
						CHANNELS 3 Xrotation Yrotation Zrotation
						JOINT mixamorig:RightForeArm
						{
							OFFSET -54.684429 0.000000 0.000000
							CHANNELS 3 Xrotation Yrotation Zrotation
							JOINT mixamorig:RightHand
							{
								OFFSET -55.150291 0.000000 0.000000
								CHANNELS 3 Xrotation Yrotation Zrotation
								JOINT mixamorig:RightHandMiddle1
								{
									OFFSET -23.317566 0.000000 0.000000
									CHANNELS 3 Xrotation Yrotation Zrotation
									JOINT mixamorig:RightHandMiddle2
									{
										OFFSET -6.378403 0.000000 0.000000
										CHANNELS 3 Xrotation Yrotation Zrotation
										JOINT mixamorig:RightHandMiddle3
										{
											OFFSET -6.148193 0.000000 0.000000
											CHANNELS 3 Xrotation Yrotation Zrotation
											JOINT mixamorig:RightHandMiddle4
											{
												OFFSET -6.583389 0.000000 0.000000
												CHANNELS 3 Xrotation Yrotation Zrotation
												End Site
												{
													OFFSET 1.171692 6.395905 1.029786
												}
											}
										}
									}
								}
								JOINT mixamorig:RightHandThumb1
								{
									OFFSET -7.190521 -3.860474 5.435846
									CHANNELS 3 Xrotation Yrotation Zrotation
									JOINT mixamorig:RightHandThumb2
									{
										OFFSET -6.567429 -3.791718 3.791708
										CHANNELS 3 Xrotation Yrotation Zrotation
										JOINT mixamorig:RightHandThumb3
										{
											OFFSET -6.062469 -3.500153 3.500166
											CHANNELS 3 Xrotation Yrotation Zrotation
											JOINT mixamorig:RightHandThumb4
											{
												OFFSET -4.792618 -2.767029 2.767022
												CHANNELS 3 Xrotation Yrotation Zrotation
												End Site
												{
													OFFSET -0.100327 6.053253 1.276754
												}
											}
										}
									}
								}
								JOINT mixamorig:RightHandIndex1
								{
									OFFSET -23.048981 -0.310791 4.992554
									CHANNELS 3 Xrotation Yrotation Zrotation
									JOINT mixamorig:RightHandIndex2
									{
										OFFSET -6.227539 0.000000 0.000000
										CHANNELS 3 Xrotation Yrotation Zrotation
										JOINT mixamorig:RightHandIndex3
										{
											OFFSET -6.095047 0.000000 0.000000
											CHANNELS 3 Xrotation Yrotation Zrotation
											JOINT mixamorig:RightHandIndex4
											{
												OFFSET -5.484772 0.000000 0.000000
												CHANNELS 3 Xrotation Yrotation Zrotation
												End Site
												{
													OFFSET 1.420593 5.237305 0.797056
												}
											}
										}
									}
								}
								JOINT mixamorig:RightHandRing1
								{
									OFFSET -22.246323 0.020569 -3.963762
									CHANNELS 3 Xrotation Yrotation Zrotation
									JOINT mixamorig:RightHandRing2
									{
										OFFSET -6.322128 0.000000 0.000000
										CHANNELS 3 Xrotation Yrotation Zrotation
										JOINT mixamorig:RightHandRing3
										{
											OFFSET -5.900024 0.000000 0.000000
											CHANNELS 3 Xrotation Yrotation Zrotation
											JOINT mixamorig:RightHandRing4
											{
												OFFSET -6.518356 0.000000 0.000000
												CHANNELS 3 Xrotation Yrotation Zrotation
												End Site
												{
													OFFSET 1.636398 6.232697 0.982186
												}
											}
										}
									}
								}
								JOINT mixamorig:RightHandPinky1
								{
									OFFSET -20.411011 -0.303314 -8.561701
									CHANNELS 3 Xrotation Yrotation Zrotation
									JOINT mixamorig:RightHandPinky2
									{
										OFFSET -6.907349 0.000000 0.000000
										CHANNELS 3 Xrotation Yrotation Zrotation
										JOINT mixamorig:RightHandPinky3
										{
											OFFSET -4.623840 0.000000 0.000000
											CHANNELS 3 Xrotation Yrotation Zrotation
											JOINT mixamorig:RightHandPinky4
											{
												OFFSET -5.218353 0.000000 0.000000
												CHANNELS 3 Xrotation Yrotation Zrotation
												End Site
												{
													OFFSET 0.602097 5.118835 0.816273
												}
											}
										}
									}
								}
							}
						}
					}
				}
			}
		}
	}
	JOINT mixamorig:LeftUpLeg
	{
		OFFSET 18.168400 -13.561905 -0.039000
		CHANNELS 3 Xrotation Yrotation Zrotation
		JOINT mixamorig:LeftLeg
		{
			OFFSET 0.577358 -80.825211 -3.695000
			CHANNELS 3 Xrotation Yrotation Zrotation
			JOINT mixamorig:LeftFoot
			{
				OFFSET -0.577356 -83.370262 -6.520700
				CHANNELS 3 Xrotation Yrotation Zrotation
				JOINT mixamorig:LeftToeBase
				{
					OFFSET 0.750401 -20.798306 25.135401
					CHANNELS 3 Xrotation Yrotation Zrotation
					JOINT mixamorig:LeftToe_End
					{
						OFFSET -0.000500 0.001200 19.917799
						CHANNELS 3 Xrotation Yrotation Zrotation
						End Site
						{
							OFFSET 0.000000 19.917805 0.000000
						}
					}
				}
			}
		}
	}
	JOINT mixamorig:RightUpLeg
	{
		OFFSET -18.162500 -13.585098 -0.041000
		CHANNELS 3 Xrotation Yrotation Zrotation
		JOINT mixamorig:RightLeg
		{
			OFFSET -0.595024 -80.945297 -3.631900
			CHANNELS 3 Xrotation Yrotation Zrotation
			JOINT mixamorig:RightFoot
			{
				OFFSET 0.595024 -83.218193 -6.561200
				CHANNELS 3 Xrotation Yrotation Zrotation
				JOINT mixamorig:RightToeBase
				{
					OFFSET -0.753601 -20.807106 25.115000
					CHANNELS 3 Xrotation Yrotation Zrotation
					JOINT mixamorig:RightToe_End
					{
						OFFSET 0.000299 0.001700 19.918200
						CHANNELS 3 Xrotation Yrotation Zrotation
						End Site
						{
							OFFSET 0.000000 19.918203 0.000000
						}
					}
				}
			}
		}
	}
}
MOTION
Frames: 4
Frame Time: 0.033333
0.162008 245.184753 2.176552 -6.855384 -4.810442 -0.297558 -0.169692 0.160691 -0.672349 0.147546 0.049335 0.117843 0.147270 0.050391 0.118029 5.896234 -1.197730 -4.858025 -0.972526 -13.047529 5.626342 -0.000000 -0.000001 0.000000 -0.000000 -0.000001 0.000000 -0.000000 -0.000001 0.000000 -38.630310 -17.779348 6.878483 -87.531258 -26.974078 -45.712315 -0.000000 -26.362150 0.000019 41.675079 -3.967260 -6.162912 2.024332 4.880465 -45.098868 3.581692 6.041897 -61.289576 0.192485 1.619859 -13.552315 -0.000000 -0.000000 -0.000001 7.378471 -14.437294 34.206472 16.321517 42.002911 -18.075177 18.107158 67.043238 3.186320 0.000002 0.000000 -0.000001 2.985765 5.774373 -47.141696 2.589770 5.384109 -51.349987 1.301806 4.033953 -35.758745 -0.000000 0.000001 -0.000007 0.013828 2.197854 -35.091326 4.853535 6.577047 -72.823559 1.007538 3.591112 -31.335108 0.000000 -0.000000 -0.000002 -0.181093 2.032983 -36.570407 2.212293 0.972353 -47.347578 1.139673 3.799228 -33.385251 0.000000 -0.000001 -0.000000 -37.747604 24.571973 2.393197 -77.435726 42.131469 32.056018 0.000002 18.205623 -0.000001 30.254057 5.880832 13.852702 2.045270 -4.929340 45.110910 3.614643 -6.099775 61.269993 0.194330 -1.635547 13.550443 0.000001 -0.000001 0.000006 9.827369 12.104388 -49.972037 17.693626 -42.477223 19.107215 16.269567 -65.367069 -4.238721 -0.000001 0.000001 0.000001 3.006949 -5.823497 47.137068 2.614763 -5.436466 51.346022 1.314308 -4.073124 35.754886 0.000001 -0.000001 0.000001 0.025972 -2.236384 35.089219 4.900653 -6.641092 72.821291 1.017192 -3.625946 31.331495 -0.000001 -0.000001 0.000004 -2.596891 1.172793 37.064558 2.214814 -5.092326 46.989123 1.150607 -3.836105 33.381515 0.000001 0.000000 0.000001 -0.271298 14.188770 1.158342 9.590642 -9.691571 2.328569 45.728263 -5.394819 -12.196527 -14.365904 -0.000000 0.000006 -0.000001 -0.000001 -0.000002 3.253246 -4.194116 -7.819598 5.419568 -1.255538 -0.128372 47.005174 7.663140 18.784770 2.537418 0.000000 0.000002 -0.000001 0.000001 -0.000002 
0.425324 245.125824 1.799767 -7.064807 -4.606007 -0.022581 -0.177406 0.078510 -0.879874 0.174989 -0.077472 0.064524 0.183417 -0.060437 0.065978 8.377860 -1.069234 -5.016833 -1.552834 -12.380951 5.616945 0.000000 0.000000 0.000000 0.000000 0.000000 0.000000 0.000000 0.000000 0.000000 -37.498941 -17.975632 6.731355 -88.333423 -27.892730 -45.441955 0.000013 -25.536952 0.000006 41.675082 -3.967261 -6.162913 2.024332 4.880465 -45.098861 3.581691 6.041897 -61.289576 0.192486 1.619857 -13.552310 0.000001 -0.000001 0.000001 7.378471 -14.437294 34.206472 16.321517 42.002914 -18.075170 18.107153 67.043238 3.186322 -0.000001 0.000000 0.000001 2.985764 5.774372 -47.141703 2.589771 5.384108 -51.349980 1.301807 4.033953 -35.758752 -0.000000 0.000001 -0.000003 0.013828 2.197853 -35.091330 4.853537 6.577047 -72.823559 1.007538 3.591112 -31.335112 -0.000001 -0.000000 -0.000001 -0.181094 2.032983 -36.570404 2.212293 0.972354 -47.347575 1.139672 3.799229 -33.385247 0.000000 0.000000 0.000000 -35.406522 24.494177 0.425193 -77.960558 41.327883 31.553121 0.000000 18.159246 0.000010 29.104911 6.085811 13.084616 2.045266 -4.929302 45.110910 3.614644 -6.099776 61.269987 0.194329 -1.635567 13.550443 0.000002 -0.000001 0.000001 9.827350 12.104418 -49.972048 17.693643 -42.477223 19.107227 16.269557 -65.367055 -4.238732 -0.000001 -0.000000 0.000000 3.006971 -5.823480 47.137079 2.614749 -5.436452 51.346032 1.314308 -4.073120 35.754896 -0.000001 -0.000000 0.000002 0.025970 -2.236345 35.089209 4.900636 -6.641104 72.821305 1.017192 -3.625972 31.331509 -0.000001 -0.000000 0.000000 -2.596885 1.172819 37.064551 2.214806 -5.092310 46.989116 1.150607 -3.836099 33.381515 -0.000001 -0.000000 -0.000002 0.374401 14.115505 0.689718 8.481057 -9.594857 2.453783 45.280708 -5.032243 -12.875910 -13.311552 0.000005 -0.000002 -0.000005 0.000000 -0.000001 2.950488 -4.267404 -8.023772 5.638355 -0.950548 -0.112860 47.466854 7.582058 18.269747 2.664381 -0.000005 0.000002 -0.000002 0.000000 0.000002 
0.646787 245.070084 1.152267 -7.248402 -4.401415 0.242395 -0.262536 -0.139515 -1.120463 0.238760 -0.369998 -0.076749 0.267475 -0.315054 -0.072277 10.653133 -1.047337 -5.161229 -2.336108 -12.154711 5.501045 -0.000000 -0.000000 0.000000 -0.000000 -0.000000 0.000000 -0.000000 -0.000000 0.000000 -36.312673 -18.075187 7.304745 -88.900404 -28.014861 -45.130905 -0.000018 -25.295469 -0.000002 41.675089 -3.967262 -6.162914 2.024331 4.880465 -45.098865 3.581690 6.041897 -61.289576 0.192486 1.619858 -13.552309 0.000001 0.000000 0.000002 7.378472 -14.437292 34.206475 16.321519 42.002914 -18.075174 18.107154 67.043238 3.186325 0.000001 -0.000001 0.000000 2.985764 5.774373 -47.141703 2.589770 5.384108 -51.349984 1.301807 4.033953 -35.758745 -0.000001 -0.000000 -0.000003 0.013828 2.197855 -35.091333 4.853534 6.577047 -72.823566 1.007537 3.591112 -31.335112 0.000001 -0.000000 0.000002 -0.181095 2.032983 -36.570397 2.212293 0.972352 -47.347571 1.139674 3.799229 -33.385247 0.000001 -0.000000 -0.000001 -32.748537 24.751888 -1.107427 -78.819461 40.591934 30.809764 -0.000010 18.135610 0.000008 28.038060 6.345440 12.286361 2.045270 -4.929338 45.110910 3.614631 -6.099776 61.269966 0.194327 -1.635582 13.550450 0.000000 -0.000001 0.000002 9.827366 12.104380 -49.972061 17.693651 -42.477209 19.107237 16.269516 -65.367041 -4.238747 0.000000 -0.000001 -0.000000 3.006971 -5.823516 47.137075 2.614756 -5.436463 51.346022 1.314316 -4.073133 35.754886 0.000001 -0.000000 0.000002 0.025976 -2.236390 35.089206 4.900642 -6.641092 72.821271 1.017187 -3.625953 31.331498 -0.000002 -0.000000 0.000004 -2.596888 1.172789 37.064565 2.214815 -5.092324 46.989123 1.150599 -3.836097 33.381525 0.000000 -0.000001 0.000003 0.447974 14.019850 0.378866 8.208326 -8.339203 2.533345 45.472558 -4.676186 -12.714011 -12.217866 -0.000005 -0.000005 -0.000000 -0.000000 0.000000 2.715843 -4.407250 -8.277665 5.428028 -0.312869 -0.082488 47.800311 7.399345 17.937354 2.673986 -0.000005 -0.000003 0.000000 0.000001 0.000002 
0.715428 244.980652 0.465961 -7.365828 -4.274612 0.486474 -0.399748 -0.476755 -1.480225 0.329361 -0.821294 -0.310977 0.389468 -0.706193 -0.301861 12.726298 -1.119566 -5.038321 -3.559661 -12.085206 5.112451 -0.000000 -0.000000 0.000000 -0.000000 -0.000000 0.000000 -0.000000 -0.000000 0.000000 -35.244135 -18.022330 8.433568 -89.607997 -27.936384 -45.024491 -0.000003 -24.943540 0.000018 41.675082 -3.967261 -6.162913 2.024333 4.880465 -45.098865 3.581690 6.041896 -61.289576 0.192486 1.619858 -13.552310 -0.000001 -0.000000 0.000001 7.378473 -14.437294 34.206475 16.321517 42.002911 -18.075179 18.107154 67.043238 3.186325 0.000000 0.000000 0.000000 2.985765 5.774373 -47.141699 2.589769 5.384109 -51.349980 1.301807 4.033953 -35.758742 0.000000 -0.000000 -0.000001 0.013828 2.197855 -35.091326 4.853536 6.577047 -72.823559 1.007538 3.591112 -31.335108 -0.000000 0.000001 -0.000001 -0.181094 2.032983 -36.570400 2.212293 0.972354 -47.347575 1.139673 3.799229 -33.385247 -0.000001 0.000001 0.000002 -29.740419 25.189707 -2.526412 -80.565735 39.524829 30.302380 -0.000004 18.142639 0.000020 27.149500 6.679389 11.536084 2.045255 -4.929327 45.110917 3.614649 -6.099764 61.269993 0.194327 -1.635572 13.550452 0.000001 -0.000000 0.000001 9.827360 12.104398 -49.972048 17.693636 -42.477216 19.107213 16.269540 -65.367062 -4.238736 0.000001 0.000001 0.000001 3.006952 -5.823510 47.137089 2.614760 -5.436470 51.346009 1.314316 -4.073122 35.754886 -0.000000 0.000001 -0.000003 0.025975 -2.236385 35.089219 4.900645 -6.641106 72.821278 1.017184 -3.625953 31.331512 -0.000000 0.000000 -0.000002 -2.596885 1.172791 37.064547 2.214808 -5.092312 46.989120 1.150601 -3.836087 33.381515 0.000001 0.000001 0.000004 0.391664 14.206466 0.354702 8.318345 -5.732161 2.500177 45.470069 -4.513931 -12.234622 -10.681129 0.000000 0.000004 -0.000003 0.000001 -0.000000 2.667820 -4.537656 -8.554652 4.556052 1.604367 0.017666 47.965075 7.415330 18.348733 2.500356 0.000006 0.000001 0.000001 -0.000000 0.000003 
